<?xml version="1.0" encoding="utf-8"?>
<?xml-stylesheet type="text/xsl" href="rss1.xsl"?>
<rss version="2.0" xmlns:atom="http://www.w3.org/2005/Atom" xmlns:content="http://purl.org/rss/1.0/modules/content/" xmlns:dc="http://purl.org/dc/elements/1.1/" xmlns:media="http://search.yahoo.com/mrss/">
<channel>
 <title>Getty</title>
 <link>http://www.gettyimg.com/</link>
 <atom:link href="http://www.gettyimg.com/" rel="self" type="application/rss+xml" />

 
                <item>
                <title><![CDATA[【Cinema Center】MOVIE - Aquaman (2018) 1080p IMAX AVC H.264]]></title>
                <link><![CDATA[https://sharemania.us/threads/aquaman-2018-1080p-imax-avc-h-264.247100/]]></link>
                <description><![CDATA[<article>
<blockquote class="messageText SelectQuoteContainer ugc baseHtml">
<div style="text-align: center"><img src="http://cdn2.highdefdigest.com/media/2019/02/07/660/88394/aquaman4K.jpeg" class="bbCodeImage LbImage" alt="[​IMG]" data-url="http://cdn2.highdefdigest.com/media/2019/02/07/660/88394/aquaman4K.jpeg" style=""><br>
<b><span style="font-size: 26px">Aquaman (2018)</span></b><br>
<br>
<i>Half-human, half-Atlantean Arthur Curry is taken on the journey of his lifetime to discover if he is worth of being a king.</i><br>
<br>
<span style="font-size: 15px">More information here because I'm too lazy to edit it : <img src="styles/default/xenforo/clear.png" class="mceSmilieSprite mceSmilie65" alt=":neutral:" title="Neutral    :neutral:"><a href="https://ultrahd.highdefdigest.com/67976/aquaman4kultrahdbluray.html" target="_blank" class="externalLink" rel="nofollow">https://ultrahd.highdefdigest.com/67976/aquaman4kultrahdbluray.html</a><br>
</span>​</div><div style="text-align: left"><span style="font-size: 15px">
<div class="ToggleTriggerAnchor bbCodeSpoilerContainer">
<button type="button" class="button bbCodeSpoilerButton ToggleTrigger Tooltip JsOnly" data-target="> .SpoilerTarget"><span>Spoiler: <span class="SpoilerTitle">MediaInfo</span></span></button>
<div class="SpoilerTarget bbCodeSpoilerText">General<br>
ID : 0 (0x0)<br>
Complete name : D:\Aquaman (2018) 1080p x264 Blu-Ray ISO\BDMV\STREAM\00018.m2ts<br>
Format : BDAV<br>
Format/Info : Blu-ray Video<br>
File size : 31.8 GiB<br>
Duration : 2 h 23 min<br>
Overall bit rate mode : Variable<br>
Overall bit rate : 31.7 Mb/s<br>
Maximum Overall bit rate : 48.0 Mb/s<br>
Frame rate : 23.976 FPS<br>
<br>
Video<br>
ID : 4113 (0x1011)<br>
Menu ID : 1 (0x1)<br>
Format : AVC<br>
Format/Info : Advanced Video Codec<br>
Format profile : High@L4.1<br>
Format settings : CABAC / 2 Ref Frames<br>
Format settings, CABAC : Yes<br>
Format settings, Reference frames : 2 frames<br>
Format settings, Slice count : 4 slices per frame<br>
Codec ID : 27<br>
Duration : 2 h 23 min<br>
Bit rate mode : Variable<br>
Width : 1 920 pixels<br>
Height : 1 080 pixels<br>
Display aspect ratio : 16:9<br>
Frame rate : 23.976 (24000/1001) FPS<br>
Color space : YUV<br>
Chroma subsampling : 4:2:0<br>
Bit depth : 8 bits<br>
Scan type : Progressive<br>
Time code of first frame : 00:59:58:00<br>
<br>
Audio #1<br>
ID : 4352 (0x1100)<br>
Menu ID : 1 (0x1)<br>
Format : MLP FBA AC-3 16-ch<br>
Format/Info : Meridian Lossless Packing FBA with 16-channel presentation<br>
Commercial name : Dolby TrueHD with Dolby Atmos<br>
Format settings : Dolby Surround EX<br>
Muxing mode : Stream extension<br>
Codec ID : 131<br>
Duration : 2 h 23 min<br>
Bit rate mode : Variable<br>
Bit rate : 448 kb/s<br>
Maximum bit rate : 6 144 kb/s<br>
Channel(s) : 8 channels<br>
Channel layout : L R C LFE Ls Rs Lb Rb<br>
Sampling rate : 48.0 kHz<br>
Frame rate : 31.250 FPS (1536 SPF)<br>
Compression mode : Lossless<br>
Stream size : 459 MiB (1%)<br>
Service kind : Complete Main<br>
Number of dynamic objects : 15<br>
Bed channel count : 1 channel<br>
Bed channel configuration : LFE<br>
AC3_metadata cmixlev : -3.0 dB<br>
surmixlev : -3 dB<br>
<br>
Audio #2<br>
ID : 4353 (0x1101)<br>
Menu ID : 1 (0x1)<br>
Format : DTS XLL<br>
Format/Info : Digital Theater Systems<br>
Commercial name : DTS-HD Master Audio<br>
Muxing mode : Stream extension<br>
Codec ID : 134<br>
Duration : 2 h 23 min<br>
Bit rate mode : Variable<br>
Channel(s) : 6 channels<br>
Channel layout : C L R Ls Rs LFE<br>
Sampling rate : 48.0 kHz<br>
Frame rate : 93.750 FPS (512 SPF)<br>
Bit depth : 16 bits<br>
Compression mode : Lossless<br>
<br>
Audio #3<br>
ID : 4354 (0x1102)<br>
Menu ID : 1 (0x1)<br>
Format : AC-3<br>
Format/Info : Audio Coding 3<br>
Commercial name : Dolby Digital<br>
Codec ID : 129<br>
Duration : 2 h 23 min<br>
Bit rate mode : Constant<br>
Bit rate : 448 kb/s<br>
Channel(s) : 6 channels<br>
Channel layout : L R C LFE Ls Rs<br>
Sampling rate : 48.0 kHz<br>
Frame rate : 31.250 FPS (1536 SPF)<br>
Compression mode : Lossy<br>
Stream size : 459 MiB (1%)<br>
Service kind : Complete Main<br>
AC3_metadata cmixlev : -3.0 dB<br>
surmixlev : -3 dB<br>
<br>
Text<br>
ID : 4608 (0x1200)<br>
Menu ID : 1 (0x1)<br>
Format : PGS<br>
Codec ID : 144</div>
</div></span>​</div><div style="text-align: center"><span style="font-size: 15px">-----------------------------------------------------------------------------------------------------------<br>
<div class="bbCodeBlock bbCodeVfcHH HiddenContent">
<div class="attribution type">Hidden Content:</div>
<blockquote>You must either reply or click 'Like' to see the hidden information contained here.</blockquote>
</div></span>
<div class="bbCodeBlock bbCodeVfcHH HiddenContent">
<div class="attribution type">Hidden Content:</div>
<blockquote>You must either reply or click 'Like' to see the hidden information contained here.</blockquote>
</div></div>
<div class="messageTextEndMarker">&nbsp;</div>
</blockquote>
</article>]]></description>
                <author><![CDATA[huypvz]]></author>
                </item>

                </channel></rss>